<?xml version="1.0" encoding="utf-8"?>
<!-- Generator: Adobe Illustrator 24.1.1, SVG Export Plug-In . SVG Version: 6.00 Build 0)  -->
<svg version="1.1" id="Capa_1" xmlns="http://www.w3.org/2000/svg" xmlns:xlink="http://www.w3.org/1999/xlink" x="0px" y="0px"
	 viewBox="0 0 74 57" style="enable-background:new 0 0 74 57;" xml:space="preserve">
<style type="text/css">
	.st0{fill:#FFFFFF;}
</style>
<g>
	<g>
		<g>
			<path class="st0" d="M47.5,14.5c-0.2,0.5-0.4,0.9-0.6,1.3c-0.1,0.2-0.4,0.1-0.4-0.1c0,0,0-0.2-0.1-0.5l3,18.9l-13.1,1.9l0.2,1.2
				L50.8,35L47.5,14.5z"/>
			<g>
				<g>
					<path class="st0" d="M3.2,47.8c-1.6-1.6-2.4-3.9-2.4-6.9c0-3,0.8-5.3,2.4-6.9c1.6-1.6,4-2.4,7.1-2.4c3.1,0,5.5,0.8,7.1,2.4
						c1.6,1.6,2.4,3.9,2.4,6.9c0,3-0.8,5.3-2.4,6.9c-1.6,1.6-4,2.4-7.1,2.4C7.2,50.3,4.8,49.5,3.2,47.8z M12.7,44.6
						c0.5-0.8,0.8-2,0.8-3.7c0-1.7-0.3-2.9-0.8-3.7c-0.5-0.8-1.3-1.2-2.5-1.2c-1.1,0-2,0.4-2.5,1.2C7.3,38.1,7,39.3,7,41
						c0,1.6,0.3,2.9,0.8,3.7c0.5,0.8,1.3,1.2,2.5,1.2C11.4,45.9,12.2,45.4,12.7,44.6z"/>
				</g>
			</g>
			<g>
				<g>
					<path class="st0" d="M60.4,49.9c-0.2-0.3-0.4-0.6-0.4-1.2V33.2c0-0.5,0.1-0.9,0.4-1.2c0.2-0.3,0.7-0.4,1.3-0.4h10
						c0.6,0,1,0.1,1.2,0.4c0.2,0.2,0.3,0.6,0.3,1.2v1.5c0,0.5-0.1,0.9-0.3,1.2c-0.2,0.2-0.6,0.4-1.2,0.4h-5.1v2.3h3.7
						c0.6,0,1,0.1,1.2,0.4c0.2,0.2,0.3,0.6,0.3,1.2v1.5c0,0.5-0.1,0.9-0.3,1.2c-0.2,0.2-0.6,0.4-1.2,0.4h-3.7v2.3h5.1
						c0.6,0,1,0.1,1.2,0.4c0.2,0.2,0.3,0.6,0.3,1.2v1.5c0,0.5-0.1,0.9-0.3,1.2c-0.2,0.2-0.6,0.4-1.2,0.4h-10
						C61.1,50.2,60.6,50.1,60.4,49.9z"/>
				</g>
			</g>
			<g>
				<path class="st0" d="M35.1,36.1l-0.7-4.4h-0.2c-0.6,0-1,0.1-1.3,0.4c-0.2,0.3-0.4,0.6-0.4,1.2v6.5l-4.9-7.3
					c-0.2-0.3-0.4-0.5-0.6-0.6c-0.2-0.1-0.5-0.2-0.9-0.2h-2.6c-0.6,0-1,0.1-1.3,0.4c-0.2,0.2-0.4,0.6-0.4,1.2v15.5
					c0,0.5,0.1,0.9,0.4,1.2c0.2,0.3,0.7,0.4,1.3,0.4h3.2c0.6,0,1-0.1,1.3-0.4c0.2-0.2,0.4-0.6,0.4-1.2v-6.5l4.9,7.3
					c0.2,0.3,0.4,0.5,0.6,0.6c0.2,0.1,0.5,0.2,0.9,0.2h2.6c0.6,0,1-0.1,1.3-0.4c0.2-0.2,0.4-0.6,0.4-1.2V35.5L35.1,36.1z"/>
				<path class="st0" d="M34.8,27.3l0.8-0.1c0.9-0.2,1.5-0.9,1.5-1.8c0,0,0,0,0,0l0.4,2.1c0.2,1,1.2,1.7,2.2,1.5l0.8-0.1
					c1-0.2,1.7-1.2,1.5-2.2l-0.1-0.7c0,0,0,0,0,0c0.3,0.8,1.2,1.3,2,1.1l0.8-0.1c0.1,0,0.1,0,0.1,0l0,0c1-0.2,1.7-1.1,1.5-2.1
					L44,12.2c0,0,0,0,0,0l-1.1,0.2c0,0,0,0,0,0L45,24.2c0.1,0.7-0.2,1.4-0.9,1.6c-0.7,0.2-1.5-0.3-1.6-1l-1.7-9.2L39,16.1l1.9,10
					c0.1,0.7-0.2,1.4-0.9,1.6c-0.7,0.2-1.5-0.3-1.6-1l-1.8-9.9l-1.9,0.5l1.3,7.1c0.1,0.7-0.2,1.4-0.9,1.6c-0.7,0.2-1.5-0.3-1.6-1
					l-1.3-7l-1.9,0.5l0.8,4.5c0.1,0.7-0.2,1.4-0.9,1.6c-0.7,0.2-1.5-0.3-1.6-1c0,0-1.2-5.9-1.6-9c-0.6-4.4-0.2-7.4-0.4-7.7
					c0,0,0,0-0.1-0.1c-0.2-0.2-0.9-0.2-1,0c-0.2,0.3-0.2,4.4,0.3,7.8c0.4,3,1.8,9.7,1.8,9.7c0.2,1,1.1,1.7,2.1,1.5l0.2,0l0.6-0.1
					l0.2,0c0.9-0.2,1.5-0.9,1.5-1.8c0,0,0,0,0,0l0.3,1.8c0.1,0.6,0.5,1.1,1,1.3C34,27.3,34.4,27.3,34.8,27.3z"/>
				<polygon class="st0" points="46.2,6.8 46.2,6.8 46.6,6.8 				"/>
				<path class="st0" d="M48.3,8.9c0,0-0.3-1.3-1.2-2c0,0-0.1-0.1-0.2-0.1h-0.4l-0.4,0c-0.2,0-0.3,0.3-0.2,0.4
					c0.5,0.5,1.3,1.7,1.3,3.1c0,2-1.2,3.7-1.1,4.1c0,0.2,0.1,0.5,0.1,0.7c0,0,0,0,0,0c0,0.3,0.1,0.5,0.1,0.5c0,0.2,0.3,0.3,0.4,0.1
					c0.2-0.3,0.4-0.8,0.6-1.3C48.2,12.9,48.9,10.6,48.3,8.9z"/>
			</g>
		</g>
		<path class="st0" d="M55.8,33.3c-1.3-1.1-3.3-1.6-6-1.6H49l0.4,2.3l-7.9,1.1v13.5c0,0.5,0.1,0.9,0.4,1.2c0.2,0.3,0.7,0.4,1.3,0.4
			h3.3c0.6,0,1.1-0.1,1.3-0.4c0.2-0.3,0.4-0.6,0.4-1.2v-4h1.7c2.7,0,4.7-0.5,6-1.6c1.3-1.1,1.9-2.7,1.9-4.9
			C57.6,36,57,34.4,55.8,33.3z M50.5,39.6c-0.3,0.3-0.8,0.5-1.4,0.5h-1.9v-3.7h1.9c0.6,0,1.1,0.2,1.4,0.5c0.3,0.3,0.5,0.8,0.5,1.4
			C51,38.8,50.9,39.3,50.5,39.6z"/>
	</g>
</g>
</svg>
